<svg width="60" height="60" viewBox="0 0 60 60" fill="none" xmlns="http://www.w3.org/2000/svg">
<g clip-path="url(#clip0_96_2828)">
<rect width="60" height="60" fill="white"/>
<path d="M79.1457 -2.95879H-19V62.4752H79.1457V-2.95879Z" fill="#012169"/>
<path d="M-9.02072 57.8522L-0.0723028 57.544L69.3789 7.64754L69.1664 1.68549L60.218 1.99366L-9.23328 51.9433L-9.02072 57.8522Z" fill="white"/>
<path d="M69.2088 57.7991L60.2604 57.4909L-9.26526 7.71127L-9.06333 1.73857L-0.114913 2.03617L69.4107 51.8264L69.2088 57.7991Z" fill="white"/>
<path d="M-9.02063 57.8522L-3.04793 57.6397L23.0109 38.882L17.0382 39.0839L-9.02063 57.8522Z" fill="#C8102E"/>
<path d="M37.135 20.6132L43.1077 20.4113L69.1665 1.68549L63.2045 1.88741L37.135 20.6132Z" fill="#C8102E"/>
<path d="M69.2089 57.7991L69.347 53.8137L49.0802 39.3071L43.1182 39.1158L69.2089 57.7991Z" fill="#C8102E"/>
<path d="M-9.02054 1.73857L-9.14807 5.72391L11.0656 20.2306L17.0277 20.4219L-9.02054 1.73857Z" fill="#C8102E"/>
<path d="M38.8936 -10.5728H20.6897V69.5243H38.8936V-10.5728Z" fill="white"/>
<path d="M75.3623 19.6992H-15.2059V39.8279H75.3623V19.6992Z" fill="white"/>
<path d="M75.3623 23.7271H-15.2059V35.8H75.3623V23.7271Z" fill="#C8102E"/>
<path d="M35.2529 -9.35925H24.3306V68.3107H35.2529V-9.35925Z" fill="#C8102E"/>
</g>
<defs>
<clipPath id="clip0_96_2828">
<rect width="60" height="60" fill="white"/>
</clipPath>
</defs>
</svg>
