<svg width="60" height="60" viewBox="0 0 60 60" fill="none" xmlns="http://www.w3.org/2000/svg">
<g clip-path="url(#clip0_96_2808)">
<rect width="60" height="60" rx="30" fill="white"/>
<path d="M74.1457 1.01812H-14V59.7851H74.1457V1.01812Z" fill="#012169"/>
<path d="M-5.0375 55.6331L2.99917 55.3564L65.3741 10.5438L65.1832 5.18918L57.1465 5.46596L-5.22839 50.3263L-5.0375 55.6331Z" fill="white"/>
<path d="M65.2213 55.5854L57.1846 55.3086L-5.25708 10.601L-5.07573 5.23686L2.96094 5.50414L65.4026 50.2212L65.2213 55.5854Z" fill="white"/>
<path d="M-5.03735 55.6331L0.326791 55.4423L23.7305 38.5958L18.3664 38.7771L-5.03735 55.6331Z" fill="#C8102E"/>
<path d="M36.4154 22.1884L41.7796 22.007L65.1833 5.18918L59.8287 5.37053L36.4154 22.1884Z" fill="#C8102E"/>
<path d="M65.2214 55.5854L65.3455 52.0061L47.1437 38.9776L41.7891 38.8057L65.2214 55.5854Z" fill="#C8102E"/>
<path d="M-5.03732 5.23686L-5.15186 8.81614L13.0022 21.8447L18.3568 22.0165L-5.03732 5.23686Z" fill="#C8102E"/>
<path d="M37.9949 -5.82013H21.6458V66.116H37.9949V-5.82013Z" fill="white"/>
<path d="M70.7478 21.3675H-10.5925V39.4452H70.7478V21.3675Z" fill="white"/>
<path d="M70.7478 24.985H-10.5925V35.8278H70.7478V24.985Z" fill="#C8102E"/>
<path d="M34.7251 -4.73019H24.9156V65.026H34.7251V-4.73019Z" fill="#C8102E"/>
</g>
<defs>
<clipPath id="clip0_96_2808">
<rect width="60" height="60" rx="30" fill="white"/>
</clipPath>
</defs>
</svg>
