<svg width="148" height="120" viewBox="0 0 148 120" fill="none" xmlns="http://www.w3.org/2000/svg">
<g filter="url(#filter0_d_90_2143)">
<path d="M76.2885 91.1193L43.1735 97.8207C32.1072 100.06 21.7646 91.6015 21.7646 80.3116C21.7646 59.1916 38.0294 32.6553 58.7157 30.9764L71.7114 28.8818L104.826 22.1793C115.893 19.9396 126.235 28.3985 126.235 39.6884C126.235 60.8084 109.97 87.3447 89.2842 89.0236L76.2885 91.1182V91.1193Z" fill="#FED22A"/>
</g>
<path d="M99.6171 38.1098V44.2887H103.703V49.6614H99.6171V61.0287C99.6171 61.9636 99.7814 62.616 100.12 62.9814C100.458 63.3491 101.123 63.5334 102.117 63.5334C102.883 63.5334 103.526 63.4865 104.046 63.396V68.9291C102.653 69.3731 101.199 69.5956 99.6845 69.5956C97.0184 69.5956 95.0519 68.9673 93.783 67.7127C92.5098 66.4571 91.8743 64.5513 91.8743 61.9931V49.6614H88.7064V44.2887H91.8754V38.1109H99.6171V38.1098Z" fill="#0E0E0E"/>
<path fill-rule="evenodd" clip-rule="evenodd" d="M67.7611 66.1855C70.1172 68.46 73.2056 69.5956 77.0177 69.5956C79.0527 69.5956 80.956 69.2029 82.7244 68.4131C84.4927 67.6244 85.8585 66.5651 86.8237 65.232L83.287 61.0527C81.9071 62.7676 79.9951 63.624 77.5455 63.624C76.0611 63.624 74.851 63.2269 73.9162 62.4316C72.9803 61.6342 72.3763 60.54 72.101 59.1469H87.4887V56.1382C87.4887 52.2655 86.4766 49.2447 84.459 47.0793C82.436 44.9127 79.6817 43.8284 76.1884 43.8284C73.7094 43.8284 71.5634 44.3607 69.757 45.4244C67.9505 46.4891 66.5804 47.9924 65.6369 49.9364C64.6934 51.8826 64.2244 54.1255 64.2244 56.6673V57.3109C64.2244 60.9524 65.404 63.912 67.7611 66.1866V66.1855ZM72.101 54.3C72.5287 51.3 73.8781 49.7989 76.146 49.7989C77.3681 49.7989 78.3116 50.1393 78.9678 50.8211C79.6272 51.504 79.9407 52.464 79.9113 53.7044V54.3H72.101V54.3Z" fill="#0E0E0E"/>
<path d="M61.605 63.1658H50.2862L61.3536 48.4691V44.2887H40.9818V50.2582H51.5246L40.4997 64.8196V69.1364H61.606V63.1658H61.605ZM78.8339 72.0185C78.8306 71.9245 78.8461 71.8307 78.8793 71.7427C78.9126 71.6546 78.963 71.5741 79.0276 71.5058C79.1571 71.3705 79.3421 71.3018 79.5826 71.3018C79.822 71.3018 80.0092 71.3705 80.1398 71.5058C80.2704 71.6422 80.3357 71.8124 80.3357 72.0185C80.3357 72.2204 80.2704 72.3895 80.1398 72.5225C80.0092 72.6567 79.822 72.7233 79.5826 72.7233C79.3421 72.7233 79.1571 72.6567 79.0276 72.5225C78.9633 72.4558 78.913 72.3768 78.8797 72.2903C78.8465 72.2037 78.8309 72.1113 78.8339 72.0185V72.0185ZM80.2443 79.4738H78.9166V73.56H80.2443V79.4738V79.4738ZM41.8589 78.5236C42.1908 78.5236 42.4662 78.4255 42.6838 78.2335C42.7888 78.1451 42.8742 78.0357 42.9346 77.9122C42.9949 77.7888 43.0289 77.6541 43.0342 77.5167H44.2857C44.2707 77.8861 44.1515 78.2436 43.9418 78.5476C43.7207 78.8715 43.4196 79.1324 43.068 79.3047C42.698 79.4902 42.3018 79.5829 41.8763 79.5829C41.0482 79.5829 40.392 79.3156 39.9066 78.78C39.4235 78.2433 39.1797 77.5036 39.1797 76.56V76.4236C39.1797 75.5236 39.4213 74.8036 39.9023 74.2625C40.3833 73.7215 41.0384 73.4498 41.8709 73.4498C42.5728 73.4498 43.1463 73.6549 43.5892 74.0651C44.0321 74.4753 44.2639 75.0142 44.2857 75.6796H43.0342C43.0299 75.3665 42.9051 75.0672 42.686 74.844C42.4694 74.6258 42.1952 74.5167 41.8589 74.5167C41.4291 74.5167 41.0972 74.6727 40.8643 74.9836C40.6314 75.2956 40.5117 75.7691 40.5095 76.4018V76.6156C40.5095 77.256 40.6249 77.7349 40.8567 78.0502C41.0874 78.3665 41.4225 78.5225 41.8578 78.5225L41.8589 78.5236Z" fill="#0E0E0E"/>
<path fill-rule="evenodd" clip-rule="evenodd" d="M55.7394 79.4738C55.6631 79.2979 55.6118 79.1121 55.5871 78.9218C55.3892 79.1354 55.1486 79.3046 54.881 79.4186C54.6134 79.5325 54.3248 79.5885 54.0342 79.5829C53.4411 79.5829 52.9546 79.4138 52.5814 79.0756C52.4012 78.9202 52.2573 78.727 52.1599 78.5096C52.0625 78.2923 52.0139 78.0561 52.0177 77.8178C52.0177 77.1873 52.2516 76.7029 52.7196 76.3669C53.1875 76.0287 53.8568 75.8607 54.7295 75.8607H55.5425V75.4724C55.5425 75.1669 55.4565 74.9215 55.2856 74.7382C55.1137 74.5538 54.8547 74.4611 54.5043 74.4611C54.2007 74.4611 53.9536 74.5375 53.761 74.688C53.6702 74.754 53.5966 74.8408 53.5462 74.9412C53.4958 75.0416 53.4702 75.1527 53.4715 75.2651H52.1439C52.1439 74.9411 52.2505 74.6378 52.466 74.3553C52.6804 74.0716 52.972 73.8513 53.3431 73.6898C53.7131 73.5306 54.1267 73.4498 54.5805 73.4498C55.2726 73.4498 55.8254 73.6244 56.2367 73.9735C56.6481 74.3204 56.8603 74.8102 56.8712 75.4396V78.1091C56.8712 78.6404 56.9463 79.0647 57.0954 79.3822V79.4749H55.7394V79.4738ZM54.2812 78.5182C54.5424 78.5182 54.7894 78.4527 55.0212 78.3262C55.253 78.1986 55.426 78.0273 55.5435 77.8135V76.6975H54.8275C54.3345 76.6975 53.9645 76.7826 53.7175 76.9538C53.5982 77.0328 53.5013 77.1412 53.4361 77.2687C53.3709 77.3961 53.3396 77.5383 53.3453 77.6815C53.3453 77.9367 53.4302 78.1396 53.5989 78.2902C53.7686 78.4418 53.9961 78.5182 54.2812 78.5182V78.5182Z" fill="#0E0E0E"/>
<path d="M68.4555 77.3258C68.5483 77.3813 68.6245 77.4608 68.676 77.556C68.7275 77.6513 68.7525 77.7587 68.7482 77.8669C68.7496 77.9699 68.7252 78.0716 68.6773 78.1626C68.6294 78.2537 68.5595 78.3313 68.474 78.3884C68.2911 78.5226 68.0256 78.588 67.6763 78.588C67.315 78.588 67.0255 78.504 66.8079 78.3349C66.5881 78.1647 66.4705 77.9236 66.452 77.6106H65.1614C65.1614 77.9629 65.268 78.2935 65.4791 78.6C65.6892 78.9055 65.9852 79.1455 66.3639 79.3211C66.7448 79.4956 67.1746 79.5829 67.6589 79.5829C68.3738 79.5829 68.9517 79.4193 69.3924 79.0887C69.8343 78.7593 70.0541 78.3273 70.0541 77.796C70.0627 77.5111 69.9874 77.2299 69.8375 76.9876C69.6939 76.7651 69.4741 76.5742 69.177 76.416C68.8799 76.2567 68.4696 76.1215 67.9494 76.0058C67.4271 75.8913 67.0821 75.7767 66.9102 75.6644C66.8296 75.6146 66.7636 75.5444 66.7187 75.4609C66.6738 75.3774 66.6516 75.2835 66.6544 75.1887C66.6544 74.9629 66.7469 74.7818 66.9309 74.6476C67.1148 74.5124 67.352 74.4458 67.6436 74.4458C67.9571 74.4458 68.2084 74.5298 68.3978 74.7C68.4889 74.7785 68.5616 74.8762 68.6107 74.9862C68.6598 75.0961 68.6841 75.2156 68.6818 75.336H70.0095C70.0095 74.7796 69.7929 74.3247 69.3565 73.9756C68.9212 73.6255 68.3499 73.4498 67.6436 73.4498C66.9798 73.4498 66.4335 73.6211 66.0026 73.9636C65.5727 74.3062 65.3583 74.7327 65.3583 75.2433C65.3583 75.852 65.6892 76.3167 66.3541 76.6375C66.7154 76.8021 67.0949 76.9229 67.4848 76.9975C67.9375 77.0924 68.2596 77.2026 68.4555 77.3258V77.3258ZM89.3746 74.2429L89.3365 73.56H88.0851V79.4738H89.4127V75.2651C89.6739 74.7807 90.0743 74.5386 90.6098 74.5386C90.9776 74.5386 91.2431 74.628 91.4042 74.8091C91.5674 74.9891 91.6479 75.2673 91.6479 75.6426V79.4738H92.9756V75.5673C92.9549 74.1567 92.3281 73.4509 91.0962 73.4509C90.3867 73.4509 89.8121 73.716 89.3746 74.244V74.2429Z" fill="#0E0E0E"/>
<path fill-rule="evenodd" clip-rule="evenodd" d="M99.8652 76.4618C99.8652 75.8836 99.9795 75.36 100.21 74.8953C100.439 74.4316 100.762 74.0749 101.178 73.8251C101.592 73.5742 102.07 73.4498 102.61 73.4498C103.407 73.4498 104.055 73.7073 104.553 74.2211C105.051 74.7349 105.318 75.4167 105.359 76.2655L105.365 76.5775C105.374 77.1173 105.259 77.652 105.028 78.1396C104.82 78.5828 104.485 78.9542 104.066 79.2066C103.649 79.4575 103.167 79.5829 102.621 79.5829C101.786 79.5829 101.118 79.3058 100.618 78.7495C100.117 78.1942 99.8652 77.4535 99.8652 76.5273V76.4618V76.4618ZM101.194 76.5775C101.194 77.1862 101.32 77.6618 101.572 78.0066C101.822 78.3513 102.172 78.5226 102.621 78.5226C103.069 78.5226 103.418 78.348 103.666 77.9989C103.917 77.6487 104.042 77.1371 104.042 76.4618C104.042 75.8651 103.912 75.3906 103.656 75.0404C103.538 74.8731 103.381 74.7377 103.199 74.6463C103.016 74.5549 102.814 74.5104 102.61 74.5167C102.408 74.5104 102.208 74.5541 102.028 74.6442C101.848 74.7342 101.692 74.8677 101.576 75.0327C101.321 75.3775 101.195 75.8924 101.195 76.5775H101.194Z" fill="#0E0E0E"/>
<defs>
<filter id="filter0_d_90_2143" x="1.76465" y="1.81805" width="144.471" height="116.364" filterUnits="userSpaceOnUse" color-interpolation-filters="sRGB">
<feFlood flood-opacity="0" result="BackgroundImageFix"/>
<feColorMatrix in="SourceAlpha" type="matrix" values="0 0 0 0 0 0 0 0 0 0 0 0 0 0 0 0 0 0 127 0" result="hardAlpha"/>
<feOffset/>
<feGaussianBlur stdDeviation="10"/>
<feColorMatrix type="matrix" values="0 0 0 0 0.996078 0 0 0 0 0.796078 0 0 0 0 0.160784 0 0 0 1 0"/>
<feBlend mode="normal" in2="BackgroundImageFix" result="effect1_dropShadow_90_2143"/>
<feBlend mode="normal" in="SourceGraphic" in2="effect1_dropShadow_90_2143" result="shape"/>
</filter>
</defs>
</svg>
